<svg width="270" height="272" viewBox="0 0 270 272" fill="none" xmlns="http://www.w3.org/2000/svg">
<path d="M7.48955 178.968C39.4396 246.348 141.31 295.448 206.85 259.018C206.901 258.978 206.958 258.948 207.02 258.928L208.1 258.328L210.22 257.048C210.387 256.96 210.547 256.86 210.7 256.748C210.779 256.683 210.863 256.623 210.95 256.568C218.896 251.592 226.035 245.431 232.12 238.298C241.648 227.093 249.484 214.553 255.38 201.078L255.54 200.708C256.24 199.068 256.94 197.418 257.62 195.768C282.03 134.428 269.89 55.598 201.26 16.678C155.53 -9.252 109.95 -2.32201 73.7596 20.598H73.6796C61.6325 28.3217 50.6577 37.6018 41.0396 48.198C41.019 48.2471 40.9884 48.2914 40.9496 48.328C5.87957 86.838 -10.7704 140.478 7.48955 178.968Z" fill="url(#paint0_radial_275_109)"/>
<g style="mix-blend-mode:multiply" opacity="0.4">
<path d="M198.029 42.168C185.759 45.488 165.359 34.618 155.229 29.588C145.099 24.558 123.889 21.208 121.559 19.978C119.229 18.748 151.679 23.458 158.249 15.458C164.819 7.45798 150.919 3.65801 154.379 1.74801C157.839 -0.161986 164.209 3.62801 176.109 9.92801C188.009 16.228 206.999 21.468 207.799 22.548C208.599 23.628 205.379 21.658 204.379 24.908C203.379 28.158 225.799 39.508 237.209 54.558C248.619 69.608 220.239 36.168 198.029 42.168Z" fill="#C62792"/>
</g>
<g style="mix-blend-mode:multiply" opacity="0.2">
<path d="M203.059 32.118C212.679 43.968 179.239 40.548 162.939 29.288C146.639 18.028 179.949 3.65797 203.059 32.118Z" fill="#A80092"/>
</g>
<path d="M197.74 36.3879C206.83 34.9579 184.43 18.2179 169.54 21.4479C154.65 24.6779 180.88 39.0379 197.74 36.3879Z" fill="#686336"/>
<path d="M191.67 31.348C192.98 33.198 185.36 35.458 178.46 31.798C171.56 28.138 170.88 25.858 172.74 24.078C174.6 22.298 189.19 27.838 191.67 31.348Z" fill="#61881D"/>
<g style="mix-blend-mode:multiply" opacity="0.2">
<path d="M257.57 195.708L255.57 200.708C256.27 199.068 256.97 197.418 257.65 195.768L257.57 195.708Z" fill="#A85592"/>
</g>
<g style="mix-blend-mode:multiply" opacity="0.2">
<path d="M7.48961 178.968C43.9396 255.848 171.49 308.968 232.12 238.298C241.648 227.093 249.484 214.553 255.38 201.078C255.38 201.078 199.49 263.368 98.8396 188.748C32.3796 139.488 77.8696 65.658 86.5696 27.388C89.9596 12.468 73.7596 20.598 73.7596 20.598H73.6796C17.7096 56.148 -15.7904 129.868 7.48961 178.968Z" fill="#A85592"/>
</g>
<g style="mix-blend-mode:soft-light" opacity="0.5">
<path d="M222.879 213.098C251.769 206.828 253.019 96.4979 237.089 68.8779C221.159 41.2579 170.689 65.3679 132.089 51.5079C93.4895 37.6479 40.6295 135.348 90.0895 175.338C139.549 215.328 183.709 221.598 222.879 213.098Z" fill="#FFD8FF"/>
</g>
<g style="mix-blend-mode:multiply" opacity="0.3">
<path d="M158.811 24.278C158.901 19.848 142.361 20.208 136.231 21.168C130.101 22.128 142.021 23.248 152.951 27.068C163.881 30.888 158.811 24.278 158.811 24.278Z" fill="#C62792"/>
</g>
<g style="mix-blend-mode:multiply" opacity="0.3">
<path d="M205.269 22.868C204.049 20.968 187.339 15.288 185.129 15.928C182.919 16.568 197.129 24.2479 199.479 24.6279C201.829 25.0079 201.499 23.508 205.269 22.868Z" fill="#C62792"/>
</g>
<g style="mix-blend-mode:multiply" opacity="0.3">
<path d="M204.379 37.188C210.869 40.638 222.239 45.908 226.779 46.928C231.319 47.948 216.109 35.3579 210.219 32.0779C204.329 28.7979 204.379 37.188 204.379 37.188Z" fill="#C62792"/>
</g>
<g style="mix-blend-mode:soft-light" opacity="0.5">
<path d="M183.509 47.8179C186.789 45.4779 159.239 29.818 143.149 26.438C127.059 23.058 110.919 27.328 107.889 32.308C104.859 37.288 137.789 45.8279 151.059 47.2379C164.329 48.6479 181.169 49.4879 183.509 47.8179Z" fill="#FFD8FF"/>
</g>
<g style="mix-blend-mode:soft-light" opacity="0.5">
<path d="M155.95 8.90794C161.73 13.1179 144.87 21.4679 122.95 16.5779C101.03 11.6879 136.75 -5.04206 155.95 8.90794Z" fill="#FFD8FF"/>
</g>
<g style="mix-blend-mode:soft-light" opacity="0.5">
<path d="M243.28 61.4479C249.91 65.6979 234.53 40.7679 223.44 32.2079C212.35 23.6479 208.29 23.838 206.62 25.118C204.95 26.398 218 35.208 227.83 44.248C233.545 49.4481 238.721 55.2104 243.28 61.4479Z" fill="#FFD8FF"/>
</g>
<g style="mix-blend-mode:soft-light" opacity="0.5">
<path d="M103.089 256.578C129.939 259.578 50.8488 176.928 28.4188 132.158C5.98884 87.388 -8.26118 144.658 12.1788 187.858C32.6188 231.058 103.089 256.578 103.089 256.578Z" fill="#FF7DFF"/>
</g>
<g style="mix-blend-mode:multiply" opacity="0.2">
<path d="M231.95 230.898C240.14 218.158 168.73 229.288 113.89 201.118C59.0502 172.948 93.5602 240.788 122.78 258.458C152 276.128 208.12 267.988 231.95 230.898Z" fill="#A85592"/>
</g>
<g style="mix-blend-mode:soft-light">
<path d="M7.48977 178.968C39.4398 246.348 141.31 295.448 206.85 259.018C193.01 266.168 144.04 283.148 61.8498 224.228C-34.4902 155.138 38.0098 52.428 40.9398 48.358C5.87978 86.838 -10.7702 140.478 7.48977 178.968Z" fill="#FFBFFF"/>
</g>
<g style="mix-blend-mode:soft-light">
<path d="M22.2192 203.548C32.4992 215.818 15.6992 163.688 8.34921 146.548C0.999206 129.408 -6.9808 168.658 22.2192 203.548Z" fill="#FFBFFF"/>
</g>
<path d="M182.61 106.588C191.91 109.588 188.78 120.438 178.84 121.398C168.9 122.358 173.3 103.658 182.61 106.588Z" fill="white"/>
<g style="mix-blend-mode:soft-light" opacity="0.5">
<path d="M231.059 77.978C247.939 94.178 250.549 189.288 214.889 209.878C179.229 230.468 68.6194 145.518 89.0494 92.3279C109.479 39.1379 212.449 60.118 231.059 77.978Z" fill="#FFD8FF"/>
</g>
<g style="mix-blend-mode:multiply" opacity="0.4">
<path d="M73.6799 20.658C106.38 4.13797 48.2099 90.038 57.5299 142.338C66.8499 194.638 27.8499 124.948 16.6399 113.268C5.42995 101.588 49.2099 32.988 73.6799 20.658Z" fill="#C62792"/>
</g>
<path d="M259.309 135.078C266.469 151.698 266.799 119.728 259.889 108.078C252.979 96.4279 259.309 135.078 259.309 135.078Z" fill="white"/>
<g style="mix-blend-mode:soft-light">
<path d="M31.85 62.4779C35.3 60.6379 25.62 74.4779 18.06 93.3379C10.5 112.198 15.59 71.1879 31.85 62.4779Z" fill="#FFBFFF"/>
</g>
<g style="mix-blend-mode:soft-light">
<path d="M261.381 144.378C263.241 145.378 260.161 167.108 243.211 205.808C226.261 244.508 197.161 259.658 188.851 259.248C180.541 258.838 180.101 255.248 183.271 251.028C186.441 246.808 219.461 248.278 237.161 215.428C254.861 182.578 248.521 176.048 251.651 165.528C254.781 155.008 261.381 144.378 261.381 144.378Z" fill="#FFD8FF"/>
</g>
<g style="mix-blend-mode:soft-light">
<path d="M62.8804 198.428C68.0204 200.028 60.3404 190.978 52.5804 179.328C44.8204 167.678 39.1704 191.038 62.8804 198.428Z" fill="#FFBFFF"/>
</g>
<g style="mix-blend-mode:multiply" opacity="0.4">
<path d="M214.189 207.188C216.949 201.568 215.729 198.758 211.239 200.068C206.749 201.378 205.049 209.068 207.949 209.898C209.142 210.252 210.421 210.175 211.562 209.679C212.703 209.183 213.633 208.301 214.189 207.188Z" fill="#C62792"/>
<path d="M160.439 215.998C165.129 213.468 158.919 208.818 156.179 210.268C153.439 211.718 153.129 219.948 160.439 215.998Z" fill="#C62792"/>
<path d="M84.6389 193.588C83.8789 200.318 72.1289 195.018 74.9889 185.358C77.8489 175.698 85.3089 187.768 84.6389 193.588Z" fill="#C62792"/>
<path d="M96.4488 212.898C99.0488 212.548 94.6788 207.628 93.5088 209.328C92.3388 211.028 94.9188 213.108 96.4488 212.898Z" fill="#C62792"/>
<path d="M63.3087 139.498C64.9387 141.568 66.9587 135.308 64.9087 135.158C62.8587 135.008 62.3787 138.288 63.3087 139.498Z" fill="#C62792"/>
<path d="M137.239 89.7179C140.149 91.8179 135.549 96.9379 132.989 95.1979C130.429 93.4579 129.279 83.9579 137.239 89.7179Z" fill="#C62792"/>
<path d="M106.379 122.278C109.939 125.278 104.549 132.718 101.299 130.408C98.0488 128.098 101.589 118.198 106.379 122.278Z" fill="#C62792"/>
<path d="M63.3788 107.868C66.9488 110.868 61.5488 118.318 58.2988 115.998C55.0488 113.678 58.5688 103.788 63.3788 107.868Z" fill="#C62792"/>
<path d="M253.639 91.308C257.209 94.358 251.809 101.758 248.559 99.438C245.309 97.118 248.849 87.228 253.639 91.308Z" fill="#C62792"/>
</g>
<defs>
<radialGradient id="paint0_radial_275_109" cx="0" cy="0" r="1" gradientUnits="userSpaceOnUse" gradientTransform="translate(218.416 69.6407) rotate(-151.894) scale(182.49 182.16)">
<stop stop-color="#FA9300"/>
<stop offset="0.85" stop-color="#F66A00"/>
<stop offset="1" stop-color="#F63F00"/>
</radialGradient>
</defs>
</svg>
