<svg width="275" height="243" viewBox="0 0 275 243" fill="none" xmlns="http://www.w3.org/2000/svg">
<path d="M17.4494 15.318L273.849 120.438C273.849 120.438 245.459 220.658 102.379 228.868C102.379 228.868 84.5294 247.458 64.8094 241.408C45.0894 235.358 43.3794 203.528 43.3794 203.528C43.3794 203.528 -32.2806 134.868 17.4494 15.318Z" fill="url(#paint0_linear_275_72)"/>
<path d="M23.5301 5.14794C45.3601 -22.2921 255.79 66.738 272.81 112.378C296.69 176.378 -41.7099 87.1279 23.5301 5.14794Z" fill="url(#paint1_linear_275_72)"/>
<path d="M35.3802 8.97794C49.9902 -1.37206 103.92 12.5979 154.47 35.9779C211.26 62.2879 264.33 100.108 263.38 120.978C261.97 152.528 -36.5698 59.9679 35.3802 8.97794Z" fill="#FFF2E6"/>
<g style="mix-blend-mode:multiply" opacity="0.2">
<path d="M0.56945 98.048C1.88945 62.988 12.3594 55.938 18.6694 57.568C24.9794 59.198 49.7295 131.998 85.5195 174.568C121.309 217.138 77.6394 231.208 42.8494 196.388C8.05942 161.568 -0.20055 118.658 0.56945 98.048Z" fill="#E79092"/>
</g>
<path d="M174.599 101.598C130.599 96.518 69.7089 66.6979 72.6789 64.9979C72.6789 64.9979 92.9689 65.1079 103.679 63.9979H103.879C114.459 62.8479 139.219 56.8379 142.149 61.3379C143.449 63.3379 150.229 71.338 157.259 79.758C157.323 79.8463 157.393 79.9299 157.469 80.008C157.606 80.1572 157.729 80.3178 157.839 80.4879C166.659 90.9479 175.659 101.738 174.599 101.598Z" fill="url(#paint2_linear_275_72)"/>
<g style="mix-blend-mode:multiply" opacity="0.2">
<path d="M98.129 64.4179C82.369 65.1379 134.649 83.8679 148.129 87.1579C161.609 90.4479 135.339 71.8679 137.249 66.8479C139.159 61.8279 146.799 80.4379 157.549 87.3379C168.299 94.2379 141.549 61.5179 139.919 60.6379C138.289 59.7579 105.049 64.1079 98.129 64.4179Z" fill="#E79092"/>
</g>
<g style="mix-blend-mode:multiply" opacity="0.2">
<path d="M13.6593 55.418C23.4093 46.418 56.9293 157.588 114.909 186.418C172.889 215.248 207.479 183.118 215.739 185.348C223.999 187.578 137.639 242.858 80.5793 219.508C23.5193 196.158 -16.4907 83.1779 13.6593 55.418Z" fill="#E79092"/>
</g>
<g style="mix-blend-mode:multiply" opacity="0.5">
<path d="M45.6094 207.848C50.8094 200.008 51.6094 231.658 63.8594 238.848C78.0794 247.178 92.2994 235.298 94.6194 233.668C96.9394 232.038 82.9894 247.048 64.7594 241.448C46.5294 235.848 45.6094 207.848 45.6094 207.848Z" fill="#EC8292"/>
</g>
<g style="mix-blend-mode:multiply" opacity="0.5">
<path d="M0.568904 98.0479C0.438904 82.8179 23.5689 200.398 81.5689 217.198C149.109 236.748 195.569 205.498 195.569 205.498C195.569 205.498 116.179 246.498 67.1789 217.138C18.1789 187.778 0.958904 142.298 0.568904 98.0479Z" fill="#EC8292"/>
</g>
<g style="mix-blend-mode:soft-light" opacity="0.5">
<path d="M99.379 104.548C65.109 102.848 74.379 185.258 142.179 196.218C209.979 207.178 243.519 151.278 247.759 144.558C251.999 137.838 207.959 135.778 170.129 127.748C132.299 119.718 104.169 104.788 99.379 104.548Z" fill="#FFD8FF"/>
</g>
<g style="mix-blend-mode:multiply" opacity="0.5">
<path d="M269.849 130.758C264.669 130.258 240.599 175.228 225.419 186.458C222.589 188.558 252.299 166.658 269.849 130.758Z" fill="#EC8292"/>
</g>
<g style="mix-blend-mode:multiply" opacity="0.5">
<path d="M124.86 223.658C110.11 223.468 200.41 190.458 212.04 185.778C223.67 181.098 183.87 224.378 124.86 223.658Z" fill="#EC8292"/>
</g>
<g style="mix-blend-mode:soft-light" opacity="0.5">
<path d="M58.0805 213.208C50.4105 208.138 55.4905 233.658 62.7605 238.078C70.0305 242.498 89.7005 234.948 92.6705 232.278C95.6405 229.608 72.7305 222.898 58.0805 213.208Z" fill="#FFD8FF"/>
</g>
<path d="M19.1602 42.658C19.1602 42.658 20.9201 72.0579 119.77 113.368C218.62 154.678 269.03 127.838 269.03 127.838C269.03 127.838 216.88 146.658 121.83 108.558C26.7801 70.458 19.1602 42.658 19.1602 42.658Z" fill="#FFE250"/>
<path d="M130.62 116.528C116.87 108.758 171.88 118.448 185.19 127.968C198.5 137.488 170.19 138.868 130.62 116.528Z" fill="white"/>
<g style="mix-blend-mode:soft-light">
<path d="M0.749545 91.5079C3.63955 85.3379 6.84955 84.4579 8.74955 89.1479C10.6495 93.8379 5.37957 100.528 2.70957 98.6579C1.59653 97.8849 0.790479 96.7455 0.432224 95.4386C0.0739676 94.1317 0.186266 92.7404 0.749545 91.5079Z" fill="#FFD8FF"/>
<path d="M29.9496 143.108C28.8996 137.398 37.0796 139.498 37.7196 142.808C38.3596 146.118 31.5796 151.998 29.9496 143.108Z" fill="#FFD8FF"/>
<path d="M119.73 205.318C112.91 212.228 129.37 220.588 137.59 208.708C145.81 196.828 125.63 199.358 119.73 205.318Z" fill="#FFD8FF"/>
<path d="M34.8595 152.738C33.3795 150.288 40.5295 150.648 39.8595 152.788C39.1895 154.928 35.7195 154.178 34.8595 152.738Z" fill="#FFD8FF"/>
<path d="M196.06 156.088C192.29 155.088 191.06 162.458 194.32 163.438C197.58 164.418 206.38 158.908 196.06 156.088Z" fill="#FFD8FF"/>
<path d="M193.01 144.058C188.01 143.108 185.4 152.728 189.58 153.908C193.76 155.088 199.75 145.338 193.01 144.058Z" fill="#FFD8FF"/>
</g>
<g style="mix-blend-mode:multiply" opacity="0.5">
<path d="M174.599 101.598C130.599 96.5179 69.7089 66.6979 72.6789 64.9979C72.6789 64.9979 92.9689 65.1079 103.679 63.9979C101.679 64.2879 86.5789 66.5079 84.9589 69.6879C83.1789 73.0879 124.959 82.6879 144.519 87.8379C164.079 92.9879 164.599 98.4979 169.239 99.2779C173.329 99.9479 160.809 84.0879 157.879 80.4579C166.659 90.9479 175.659 101.738 174.599 101.598Z" fill="#EC8292"/>
</g>
<path d="M249.12 113.798C241.69 119.338 196.68 110.158 184.04 101.508C173.69 94.3979 148.38 66.2179 144.04 57.4179C143.1 55.5279 143.16 54.5179 144.58 54.8679C170.76 61.1179 213.86 83.9979 235.83 99.4979C236.22 99.7579 236.56 100.038 236.95 100.308C240.673 102.84 244.146 105.723 247.32 108.918C247.389 108.956 247.445 109.016 247.48 109.088C247.473 109.104 247.473 109.122 247.48 109.138C249.54 111.358 250.2 112.968 249.12 113.798Z" fill="url(#paint3_linear_275_72)"/>
<path d="M132.669 53.368C133.499 47.478 42.2187 17.528 34.4887 18.218C26.7587 18.908 38.0987 48.398 59.9887 56.388C81.8787 64.378 132.209 56.658 132.669 53.368Z" fill="url(#paint4_linear_275_72)"/>
<path d="M136.11 49.0179C129.74 46.8679 60.9902 17.5179 58.3102 13.5279C55.6302 9.53794 105.75 15.068 138.5 31.048C171.25 47.028 138.62 49.8679 136.11 49.0179Z" fill="url(#paint5_linear_275_72)"/>
<path d="M143.59 52.218C140.25 51.088 158.46 45.4379 166.81 47.0179C175.16 48.5979 230.74 79.2679 233.03 87.6479C235.32 96.028 202.72 72.188 143.59 52.218Z" fill="url(#paint6_linear_275_72)"/>
<g style="mix-blend-mode:multiply" opacity="0.2">
<path d="M144.6 54.8779C144.49 58.2279 164.54 79.7479 179.28 89.1879C194.02 98.6279 171.42 79.4379 162.89 69.8179C154.36 60.1979 191.89 93.7179 215.51 103.158C239.13 112.598 206.26 84.4179 189.05 74.4079C171.84 64.3979 144.6 54.8779 144.6 54.8779Z" fill="#E79092"/>
</g>
<g style="mix-blend-mode:multiply" opacity="0.2">
<path d="M45.8704 20.538C37.9804 18.538 65.4904 49.218 87.3304 55.208C101.02 58.8464 115.553 57.5471 128.38 51.538C130.09 50.788 85.6204 30.488 45.8704 20.538Z" fill="#E79092"/>
</g>
<g style="mix-blend-mode:multiply" opacity="0.5">
<path d="M32.2793 24.338C32.2793 24.338 37.9893 42.488 58.8993 51.978C79.8093 61.468 123.899 56.408 123.899 56.408C123.899 56.408 80.0093 64.038 60.0293 56.408C40.0493 48.778 32.2793 24.338 32.2793 24.338Z" fill="#EC8292"/>
</g>
<g style="mix-blend-mode:multiply" opacity="0.5">
<path d="M77.7703 23.798C63.6303 12.298 115.94 20.3879 132.16 30.9279C148.38 41.4679 150.91 37.1379 132.98 28.5179C115.05 19.8979 87.3803 14.6579 77.3803 13.5679C67.3803 12.4779 60.1303 12.3079 58.3803 13.5679C56.6303 14.8279 77.7703 23.798 77.7703 23.798Z" fill="#EC8292"/>
</g>
<g style="mix-blend-mode:multiply" opacity="0.2">
<path d="M150.46 50.0379C147.91 51.2979 171.76 61.8279 192.21 67.6179C212.66 73.4079 173.1 48.1379 168.29 47.4379C163.48 46.7379 152.98 48.8079 150.46 50.0379Z" fill="#E79092"/>
</g>
<g style="mix-blend-mode:multiply" opacity="0.5">
<path d="M247.47 109.068C227.772 95.2762 207.045 83.0169 185.47 72.398C155.13 57.528 147.13 58.528 144.09 57.398C143.15 55.508 143.21 54.498 144.63 54.848C170.81 61.098 213.91 83.978 235.88 99.478C236.27 99.738 236.61 100.018 237 100.288C243.09 104.938 246.49 108.088 247.37 108.898L247.47 109.068Z" fill="#EC8292"/>
</g>
<g style="mix-blend-mode:multiply" opacity="0.5">
<path d="M69.5391 27.3979C69.5391 27.3979 110.219 42.598 117.289 47.938C124.359 53.278 130.289 50.938 130.289 50.938C130.289 50.938 107.379 39.3979 69.5391 27.3979Z" fill="#EC8292"/>
</g>
<path d="M92.7897 46.208C88.5397 43.208 108.24 47.208 110.72 49.878C113.2 52.548 105.46 55.038 92.7897 46.208Z" fill="#FFF2E6"/>
<path d="M177.989 54.008C175.489 50.008 156.539 51.228 156.539 52.328C156.539 53.428 186.379 67.318 177.989 54.008Z" fill="#FFF2E6"/>
<defs>
<linearGradient id="paint0_linear_275_72" x1="70.1346" y1="243.875" x2="146.757" y2="65.7894" gradientUnits="userSpaceOnUse">
<stop stop-color="#FF7600"/>
<stop offset="0.17" stop-color="#FF9200"/>
<stop offset="1" stop-color="#FFA000"/>
</linearGradient>
<linearGradient id="paint1_linear_275_72" x1="15.7324" y1="19.2783" x2="270.511" y2="128.898" gradientUnits="userSpaceOnUse">
<stop stop-color="#FFE000"/>
<stop offset="1" stop-color="#FFCD00"/>
</linearGradient>
<linearGradient id="paint2_linear_275_72" x1="78.2827" y1="51.8196" x2="177.664" y2="94.5789" gradientUnits="userSpaceOnUse">
<stop stop-color="#FFBF00"/>
<stop offset="1" stop-color="#FFCD00"/>
</linearGradient>
<linearGradient id="paint3_linear_275_72" x1="138.637" y1="66.3674" x2="249.226" y2="113.949" gradientUnits="userSpaceOnUse">
<stop stop-color="#FFBF00"/>
<stop offset="1" stop-color="#FFCD00"/>
</linearGradient>
<linearGradient id="paint4_linear_275_72" x1="30.0335" y1="25.3558" x2="126.797" y2="66.9888" gradientUnits="userSpaceOnUse">
<stop stop-color="#FFBF00"/>
<stop offset="1" stop-color="#FFCD00"/>
</linearGradient>
<linearGradient id="paint5_linear_275_72" x1="60.7405" y1="7.22525" x2="151.745" y2="46.3802" gradientUnits="userSpaceOnUse">
<stop stop-color="#FF9F00"/>
<stop offset="1" stop-color="#FFB300"/>
</linearGradient>
<linearGradient id="paint6_linear_275_72" x1="144.631" y1="47.8703" x2="235.629" y2="81.893" gradientUnits="userSpaceOnUse">
<stop stop-color="#FFBF00"/>
<stop offset="1" stop-color="#FFCD00"/>
</linearGradient>
</defs>
</svg>
