<svg width="279" height="269" viewBox="0 0 279 269" fill="none" xmlns="http://www.w3.org/2000/svg">
<path d="M18.3793 45.898C1.98932 -9.82205 243.629 74.658 252.689 134.658C260.719 187.838 62.0593 194.078 18.3793 45.898Z" fill="#A40027"/>
<path d="M76.1207 127.398C72.2307 115.518 91.8307 52.8879 105.121 47.2179C118.701 41.3979 132.231 77.4879 127.301 113.148C122.741 145.908 77.7107 132.238 76.1207 127.398Z" fill="url(#paint0_linear_275_145)"/>
<path d="M110.95 146.788C100.51 131.678 130.35 67.538 156.95 66.028C184.34 64.478 167.46 146.508 141.25 155.238C116.27 163.578 110.95 146.788 110.95 146.788Z" fill="url(#paint1_linear_275_145)"/>
<path d="M147.22 166.328C143.72 158.708 165.42 109.328 186.29 99.238C208.07 88.708 215.11 124.828 191.51 157.338C170.09 186.858 147.22 166.328 147.22 166.328Z" fill="url(#paint2_linear_275_145)"/>
<path d="M63.1995 117.218C79.5595 122.918 83.3895 93.498 73.1995 60.538C62.2995 25.278 43.3595 29.318 34.5095 37.178C25.8795 44.838 32.2195 106.428 63.1995 117.218Z" fill="url(#paint3_linear_275_145)"/>
<path d="M65.2896 70.658C79.7196 121.458 108.189 44.518 101.949 15.358C95.3395 -15.562 32.8295 10.588 24.4495 22.808C16.3795 34.598 51.6496 22.658 65.2896 70.658Z" fill="url(#paint4_linear_275_145)"/>
<path d="M70.9989 89.6579C91.0489 46.1079 38.0989 16.1979 20.0989 28.7279C2.85886 40.7279 -10.3911 95.3579 13.6589 116.548C26.8289 128.148 65.2489 102.138 70.9989 89.6579Z" fill="url(#paint5_linear_275_145)"/>
<path d="M108.129 86.718C88.0092 66.718 104.539 37.558 101.949 15.338C99.2491 -7.93204 157.129 -2.52203 165.479 35.908C173.259 71.658 111.799 90.368 108.129 86.718Z" fill="url(#paint6_linear_275_145)"/>
<path d="M182.72 36.768C159.49 39.918 148.64 73.588 150.38 94.038C152.05 113.608 203.48 121.258 223.38 86.608C245.25 48.378 192.3 35.478 182.72 36.768Z" fill="url(#paint7_linear_275_145)"/>
<path d="M34.2398 176.128C20.6398 174.918 14.4297 201.538 34.3297 227.428C53.2697 252.058 68.5098 232.088 71.9898 215.368C75.6498 197.758 43.2398 176.928 34.2398 176.128Z" fill="url(#paint8_linear_275_145)"/>
<path d="M20.6506 115.578C8.95057 101.428 -12.2194 150.368 20.6506 184.578C39.2306 203.888 36.7906 156.078 35.6506 150.578C34.5106 145.078 23.1406 118.588 20.6506 115.578Z" fill="url(#paint9_linear_275_145)"/>
<path d="M180.49 130.658C177.12 110.278 213.21 72.5779 236.22 73.2079C277.22 74.3179 265.38 122.648 252.39 144.468C241.18 163.338 180.49 130.658 180.49 130.658Z" fill="url(#paint10_linear_275_145)"/>
<path d="M193.881 130.728C186.701 119.458 237.77 97.088 269.07 107.468C286.61 113.288 281.611 157.468 243.511 187.048C211.511 211.918 208.701 193.358 212.901 181.488C217.251 169.198 210.581 156.918 193.881 130.728Z" fill="url(#paint11_linear_275_145)"/>
<g style="mix-blend-mode:multiply">
<path d="M75.0797 69.968C83.0797 82.608 97.6698 56.538 97.6698 56.538C97.6698 56.538 96.6697 72.6579 115.73 80.1979C134.79 87.7379 158.29 59.8979 158.29 59.8979C158.29 59.8979 146.86 95.8979 164.2 103.268C181.54 110.638 206.2 86.8779 206.2 86.8779C206.2 86.8779 184.69 109.538 185.76 116.878C186.83 124.218 225.63 108.298 225.63 108.298L208.38 124.658L161.51 157.278L88.2197 142.118L69.2598 91.658L75.0797 69.968Z" fill="#CA0092"/>
</g>
<path d="M185.379 212.018C177.469 211.268 143.289 231.728 140.379 236.018C137.469 240.308 128.379 249.308 137.059 255.658C145.549 261.828 162.129 255.568 170.959 247.868C192.199 229.328 188.189 212.288 185.379 212.018Z" fill="url(#paint12_linear_275_145)"/>
<path d="M218.17 176.728C211.17 171.728 188.88 192.198 176.74 208.108C165.23 223.208 156.32 239.258 158.16 242.998C160 246.738 194.63 243.468 212.91 220.268C232.75 195.088 222.17 179.538 218.17 176.728Z" fill="url(#paint13_linear_275_145)"/>
<path d="M74.7297 198.158C63.7297 192.978 45.3197 218.478 53.5397 240.788C61.3297 261.938 82.8497 265.038 90.4797 247.018C98.5897 227.838 80.8097 201.008 74.7297 198.158Z" fill="url(#paint14_linear_275_145)"/>
<path d="M60.2092 135.398C59.7992 135.258 37.0692 143.688 35.6792 150.528C34.2892 157.368 22.9491 186.728 41.1991 213.878C49.8591 226.748 67.5791 218.448 76.6991 193.628C80.4991 183.288 63.3792 136.418 60.2092 135.398Z" fill="url(#paint15_linear_275_145)"/>
<path d="M125.88 214.128C122.15 212.708 82.0397 244.558 83.6197 255.598C86.9497 278.918 128.72 266.978 137.98 251.768C156.86 220.748 132.96 216.828 125.88 214.128Z" fill="url(#paint16_linear_275_145)"/>
<path d="M118.23 163.788C111.41 159.378 79.8902 182.788 75.7102 190.458C71.6402 197.928 68.3003 227.808 81.5403 244.978C94.3503 261.598 118.75 245.458 131.6 209.818C135.75 198.318 129.7 171.208 118.23 163.788Z" fill="url(#paint17_linear_275_145)"/>
<path d="M175.11 175.658C170.11 173.298 140.21 197.118 131.6 209.788C123.34 221.948 123.83 238.008 129.2 244.058C138.87 254.948 177.11 244.738 182.95 202.718C183.86 196.148 179.64 177.808 175.11 175.658Z" fill="url(#paint18_linear_275_145)"/>
<path d="M93.4798 122.658C103.37 118.818 83.7798 58.2279 39.4798 77.3779C15.1598 87.8879 18.1898 130.178 27.9698 147.498C37.4498 164.258 74.6298 129.998 93.4798 122.658Z" fill="url(#paint19_linear_275_145)"/>
<path d="M99.9293 116.918C74.9293 116.918 54.4092 131.208 52.4592 158.278C50.6492 183.518 65.7392 203.878 89.4592 195.768C96.7792 193.268 115.459 176.768 117.769 171.098C122.679 159.208 127.519 116.918 99.9293 116.918Z" fill="url(#paint20_linear_275_145)"/>
<path d="M173.83 131.538C162.59 138.068 176.4 160.538 175.07 180.538C173.81 199.598 192.21 215.878 218.57 180.538C248.28 140.658 213.85 108.268 173.83 131.538Z" fill="url(#paint21_linear_275_145)"/>
<path d="M132.279 133.218C123.279 138.768 120.279 145.608 113.079 168.388C106.319 189.768 119.629 205.198 129.229 209.138C138.829 213.078 158.019 205.218 175.069 180.588C183.689 168.128 174.579 107.098 132.279 133.218Z" fill="url(#paint22_linear_275_145)"/>
<g style="mix-blend-mode:multiply" opacity="0.6">
<path d="M237.68 182.968C231.87 178.898 227.68 163.968 227.68 163.968C227.68 163.968 226.59 165.968 224.68 169.058C218.22 179.658 202.48 202.848 189.9 199.758C173.68 195.758 175.56 179.708 175.56 179.708C175.56 179.708 155.3 211.578 134.07 208.168C112.84 204.758 112.98 174.578 112.98 174.578C112.98 174.578 95.6701 204.218 71.7101 194.268C47.7501 184.318 58.7802 137.498 58.7802 137.498C58.7802 137.498 44.6401 154.628 29.9501 143.408C23.5901 138.548 22.5101 127.218 23.1101 116.298C23.8601 101.788 27.5102 88.0079 25.8102 90.7779C22.8102 95.6979 8.45016 116.618 1.16016 90.4579C4.61016 111.328 13.6301 116.548 13.6301 116.548V116.808C14.6051 125.653 17.2521 134.232 21.4302 142.088C28.4302 155.198 31.0801 187.748 31.0801 187.748C31.0801 187.748 30.1701 203.028 36.7601 216.648C40.8719 224.961 46.5098 232.428 53.3801 238.658L53.6301 238.878C52.5451 235.235 52.4554 231.368 53.3701 227.678C54.9601 222.108 68.4801 214.078 68.4801 214.078C65.9301 234.608 73.6401 246.308 79.0101 251.738C80.3913 253.215 81.9537 254.512 83.6602 255.598C83.6602 255.598 86.5501 259.148 101.13 261.198C113.5 262.958 124.73 258.818 131.84 255.198C134.549 253.828 137.139 252.232 139.58 250.428C139.941 251.076 140.431 251.643 141.022 252.092C141.612 252.541 142.289 252.863 143.01 253.038C149.01 255.248 160.83 254.368 165.17 252.138C170.38 249.438 175.79 243.388 176.43 242.628C176.06 242.888 174.43 244.038 169.89 243.958C169.744 243.938 169.596 243.938 169.45 243.958C163.88 243.758 164.8 238.248 164.8 238.248C164.8 238.248 153.11 250.008 139.08 246.968C125.05 243.928 124.84 225.178 124.84 225.178C124.84 225.178 104.14 257.958 87.5502 250.178C70.9602 242.398 72.4901 218.818 72.4901 218.818C72.4901 218.818 72.9701 200.618 89.5901 198.978C106.21 197.338 120.23 204.368 126.82 212.178C128.73 214.428 124.82 225.178 124.82 225.178C124.82 225.178 131.64 215.558 138.82 213.108C146 210.658 182.33 198.108 182.22 206.618C182.08 214.738 170.39 232.228 169.3 233.898C174.629 228.798 179.638 223.374 184.3 217.658C192.42 207.998 213.58 190.748 219.04 187.728C219.347 187.52 219.684 187.362 220.04 187.258C222.9 186.618 224.35 198.438 224.35 198.438C234.35 194.958 249.07 182.268 251.97 179.678C249.97 181.218 242.68 186.428 237.68 182.968ZM45.0101 217.038C31.4701 208.168 29.5901 175.208 33.0101 160.938C34.3401 155.448 47.2201 150.938 50.0101 153.718C52.8001 156.498 53.9001 186.298 60.3501 196.768C66.8001 207.238 58.5101 225.928 45.0101 217.038Z" fill="#CA0092"/>
</g>
<g style="mix-blend-mode:multiply" opacity="0.8">
<path d="M219.041 187.738C212.571 203.238 201.04 224.828 184.47 235.868C179.815 238.921 174.923 241.596 169.84 243.868C161.199 247.768 152.196 250.809 142.96 252.948C139.33 253.808 135.601 254.548 131.791 255.108C114.791 257.668 96.3204 257.288 78.9604 251.688C69.8629 248.797 61.2924 244.454 53.5804 238.828L53.3805 238.658C11.7805 207.878 13.5505 122.148 13.7205 116.818V116.558L23.2004 116.308C22.6004 127.228 23.6805 138.558 30.0405 143.418C44.7305 154.638 58.8705 137.508 58.8705 137.508C58.8705 137.508 47.8705 184.298 71.8005 194.278C95.7305 204.258 113.07 174.588 113.07 174.588C113.07 174.588 112.921 204.768 134.161 208.178C155.401 211.588 175.6 179.658 175.6 179.658C175.6 179.658 173.721 195.748 189.941 199.708C202.521 202.798 218.26 179.608 224.72 169.008C225.11 169.358 225.301 169.628 225.281 169.768C225.21 170.658 223.111 178.008 219.041 187.738Z" fill="#E64592"/>
</g>
<g style="mix-blend-mode:soft-light" opacity="0.3">
<path d="M132.28 133.218C119.34 137.978 117.35 172.008 137.28 190.138C157.21 208.268 171.35 180.498 176.28 164.968C181.21 149.438 165.81 120.878 132.28 133.218Z" fill="#FFD8FF"/>
</g>
<g style="mix-blend-mode:soft-light" opacity="0.3">
<path d="M188.15 130.978C179.93 137.318 186.27 171.978 198.57 178.548C210.87 185.118 227.83 174.298 228.88 149.308C229.93 124.318 198.38 123.088 188.15 130.978Z" fill="#FFD8FF"/>
</g>
<g style="mix-blend-mode:soft-light" opacity="0.3">
<path d="M234.91 112.028C222.25 121.698 232.76 141.608 245.91 153.028C259.06 164.448 280.91 133.438 273.85 117.468C266.79 101.498 248.38 101.758 234.91 112.028Z" fill="#FFD8FF"/>
</g>
<g style="mix-blend-mode:soft-light" opacity="0.3">
<path d="M72.9891 67.658C73.5891 74.858 33.7491 72.008 20.9891 62.938C8.22913 53.868 11.8191 33.8179 20.1091 28.7679C28.3991 23.7179 70.5691 38.468 72.9891 67.658Z" fill="#FFD8FF"/>
</g>
<g style="mix-blend-mode:soft-light" opacity="0.3">
<path d="M118.229 7.38794C107.449 9.28794 100.699 49.088 117.809 58.608C134.919 68.128 160.989 54.098 163.679 42.688C166.369 31.278 136.179 4.21794 118.229 7.38794Z" fill="#FFD8FF"/>
</g>
<g style="mix-blend-mode:soft-light" opacity="0.3">
<path d="M178.25 41.5779C173.93 42.8879 158.87 54.0779 167.53 67.8979C176.19 81.7179 217.979 80.5179 221.84 66.3779C225.7 52.2379 194.53 36.6579 178.25 41.5779Z" fill="#FFD8FF"/>
</g>
<g style="mix-blend-mode:soft-light">
<path d="M141.041 208.068C133.961 203.828 160.041 189.348 163.631 188.828C167.221 188.308 155.011 205.358 141.041 208.068Z" fill="#FFD8FF"/>
</g>
<g style="mix-blend-mode:soft-light">
<path d="M139.679 244.738C131.529 239.038 159.539 225.138 166.859 224.458C174.179 223.778 160.609 251.828 139.679 244.738Z" fill="#FFD8FF"/>
</g>
<g style="mix-blend-mode:soft-light">
<path d="M74.3805 194.578C66.2305 188.878 94.2405 174.988 101.561 174.308C108.881 173.628 95.2905 201.658 74.3805 194.578Z" fill="#FFD8FF"/>
</g>
<g style="mix-blend-mode:soft-light">
<path d="M186.85 197.268C181.54 193.558 199.79 184.508 204.56 184.058C209.33 183.608 200.49 201.888 186.85 197.268Z" fill="#FFD8FF"/>
</g>
<g style="mix-blend-mode:soft-light">
<path d="M100.031 265.568C95.9808 260.498 116.031 256.978 120.741 257.898C125.451 258.818 111.801 273.848 100.031 265.568Z" fill="#FFD8FF"/>
</g>
<g style="mix-blend-mode:soft-light">
<path d="M182.98 239.548C179.98 234.008 206.04 217.468 210.68 214.828C215.32 212.188 203.32 236.908 182.98 239.548Z" fill="#FFD8FF"/>
</g>
<g style="mix-blend-mode:soft-light">
<path d="M246.07 183.378C241.75 178.818 262.53 156.028 266.32 152.278C270.11 148.528 265.01 175.508 246.07 183.378Z" fill="#FFD8FF"/>
</g>
<g style="mix-blend-mode:soft-light">
<path d="M90.9599 249.178C86.1299 247.578 103.66 236.708 108.82 236.918C113.98 237.128 103.55 253.358 90.9599 249.178Z" fill="#FFD8FF"/>
</g>
<path d="M162.379 144.658C152.959 145.778 155.949 161.268 164.619 162.658C173.289 164.048 173.119 143.418 162.379 144.658Z" fill="#FFD8FF"/>
<g style="mix-blend-mode:soft-light">
<path d="M95.6407 127.748C89.4707 120.548 78.2707 131.658 81.9807 139.598C85.6907 147.538 102.661 135.938 95.6407 127.748Z" fill="#FFD8FF"/>
</g>
<g style="mix-blend-mode:soft-light">
<path d="M103.519 206.918C95.8094 199.078 83.7294 212.828 88.6594 221.728C93.5894 230.628 112.299 215.838 103.519 206.918Z" fill="#FFD8FF"/>
</g>
<g style="mix-blend-mode:soft-light">
<path d="M37.5605 166.928C31.0805 170.528 31.7505 186.748 37.5005 186.038C43.2505 185.328 44.9405 162.848 37.5605 166.928Z" fill="#FFD8FF"/>
</g>
<path d="M212.379 140.858C208.959 139.728 210.139 150.858 214.379 150.118C218.619 149.378 215.829 141.978 212.379 140.858Z" fill="#FFD8FF"/>
<path d="M247.76 115.208C244.7 117.098 253.97 123.368 256.13 119.648C258.29 115.928 250.81 113.318 247.76 115.208Z" fill="#FFD8FF"/>
<g style="mix-blend-mode:soft-light" opacity="0.3">
<path d="M47.0194 93.558C36.1394 88.758 55.4094 79.388 65.8794 85.558C76.3494 91.728 62.1294 100.228 47.0194 93.558Z" fill="#FFD8FF"/>
</g>
<path d="M77.9098 11.658C68.6598 8.51796 77.4098 22.5379 82.7498 22.5679C88.0898 22.5979 83.2398 13.488 77.9098 11.658Z" fill="#FFD8FF"/>
<g style="mix-blend-mode:soft-light" opacity="0.3">
<path d="M107.52 88.078C91.9101 79.238 95.2201 105.078 108.17 110.568C121.12 116.058 123.48 97.118 107.52 88.078Z" fill="#FFD8FF"/>
</g>
<g style="mix-blend-mode:soft-light" opacity="0.3">
<path d="M143.09 93.238C130.64 88.478 124.16 111.238 127.8 118.978C131.44 126.718 148.1 120.868 152.41 115.548C156.72 110.228 147.38 94.868 143.09 93.238Z" fill="#FFD8FF"/>
</g>
<g style="mix-blend-mode:multiply" opacity="0.71">
<path d="M96.2402 191.858C102.67 186.798 109.16 189.298 113.86 194.858C118.56 200.418 111.86 179.098 111.79 176.478C111.72 173.858 103.56 186.808 96.2402 191.858Z" fill="#CA0092"/>
</g>
<g style="mix-blend-mode:multiply" opacity="0.71">
<path d="M160.65 198.578C167.9 189.798 176.65 195.828 176.65 195.828L175.65 179.698L160.65 198.578Z" fill="#CA0092"/>
</g>
<g style="mix-blend-mode:multiply" opacity="0.71">
<path d="M46.3789 147.468C49.8789 144.648 55.8489 153.468 55.8489 153.468L57.7289 138.698L46.3789 147.468Z" fill="#CA0092"/>
</g>
<g style="mix-blend-mode:multiply" opacity="0.71">
<path d="M208.379 124.658C208.379 124.658 220.219 124.878 228.909 131.028C237.599 137.178 229.479 156.238 229.479 156.238C229.479 156.238 234.379 129.148 208.379 124.658Z" fill="#CA0092"/>
</g>
<g style="mix-blend-mode:multiply" opacity="0.71">
<path d="M169.85 136.658C169.85 136.658 184.27 160.478 175.6 179.658C175.6 179.658 192.12 152.058 169.85 136.658Z" fill="#CA0092"/>
</g>
<g style="mix-blend-mode:multiply" opacity="0.71">
<path d="M95.9803 117.038C95.9803 117.038 74.9803 115.958 58.8203 137.488C58.8203 137.488 67.0203 112.758 95.9803 117.038Z" fill="#CA0092"/>
</g>
<g style="mix-blend-mode:multiply" opacity="0.71">
<path d="M25.8496 90.768C25.8496 90.768 41.4897 66.098 72.0197 77.488C72.0197 77.488 41.5796 59.578 25.8496 90.768Z" fill="#CA0092"/>
</g>
<g style="mix-blend-mode:multiply" opacity="0.71">
<path d="M43.8203 216.908C46.8203 222.408 48.6104 230.978 50.3904 230.988C52.1704 230.998 53.7404 223.068 56.3904 220.828C59.0404 218.588 49.4603 219.938 43.8203 216.908Z" fill="#CA0092"/>
</g>
<g style="mix-blend-mode:multiply" opacity="0.71">
<path d="M127.61 244.568C124.85 246.568 112.75 246.948 111.85 244.278C110.95 241.608 120.699 231.508 122.959 228.988C125.219 226.468 128.67 243.778 127.61 244.568Z" fill="#CA0092"/>
</g>
<g style="mix-blend-mode:multiply" opacity="0.71">
<path d="M154.561 244.898C154.561 244.898 164.201 244.898 165.771 244.108C167.341 243.318 164.771 238.168 164.771 238.168C161.796 241.003 158.338 243.282 154.561 244.898Z" fill="#CA0092"/>
</g>
<g style="mix-blend-mode:multiply" opacity="0.71">
<path d="M264.479 106.208C264.479 106.208 264.609 100.108 260.349 96.468C256.089 92.828 233.689 105.988 233.689 105.988C233.689 105.988 250.449 103.318 264.479 106.208Z" fill="#CA0092"/>
</g>
<g style="mix-blend-mode:multiply" opacity="0.71">
<path d="M101.95 15.338C103.465 27.4266 102.495 39.6974 99.0996 51.3979C99.0996 51.3979 108.29 31.768 101.95 15.338Z" fill="#CA0092"/>
</g>
<g style="mix-blend-mode:multiply" opacity="0.71">
<path d="M35 26.168C47.8453 27.5154 59.8618 33.152 69.11 42.168C84.69 57.308 73.37 74.168 73.37 74.168C73.37 74.168 82.38 43.488 35 26.168Z" fill="#CA0092"/>
</g>
<g style="mix-blend-mode:soft-light">
<path d="M166.28 98.908C161.36 91.528 194.66 87.848 197.21 90.988C199.76 94.128 174.26 110.878 166.28 98.908Z" fill="#FFD8FF"/>
</g>
<g style="mix-blend-mode:soft-light">
<path d="M119.45 80.198C113.45 77.928 141.34 65.4379 145.09 67.0679C148.84 68.6979 131.31 84.718 119.45 80.198Z" fill="#FFD8FF"/>
</g>
<defs>
<linearGradient id="paint0_linear_275_145" x1="91.478" y1="134.925" x2="124.894" y2="52.8788" gradientUnits="userSpaceOnUse">
<stop stop-color="#C0001D"/>
<stop offset="1" stop-color="#F01936"/>
</linearGradient>
<linearGradient id="paint1_linear_275_145" x1="123.839" y1="157.51" x2="160.947" y2="66.3969" gradientUnits="userSpaceOnUse">
<stop stop-color="#C0001D"/>
<stop offset="1" stop-color="#F01936"/>
</linearGradient>
<linearGradient id="paint2_linear_275_145" x1="163.755" y1="174.588" x2="195.27" y2="97.2093" gradientUnits="userSpaceOnUse">
<stop stop-color="#C0001D"/>
<stop offset="1" stop-color="#F01936"/>
</linearGradient>
<linearGradient id="paint3_linear_275_145" x1="41.0965" y1="108.252" x2="69.2126" y2="39.2177" gradientUnits="userSpaceOnUse">
<stop stop-color="#C0001D"/>
<stop offset="1" stop-color="#F01936"/>
</linearGradient>
<linearGradient id="paint4_linear_275_145" x1="46.6827" y1="75.5535" x2="78.4839" y2="-2.52888" gradientUnits="userSpaceOnUse">
<stop stop-color="#EB001D"/>
<stop offset="1" stop-color="#FF5757"/>
</linearGradient>
<linearGradient id="paint5_linear_275_145" x1="18.5543" y1="119.165" x2="53.8333" y2="32.5439" gradientUnits="userSpaceOnUse">
<stop stop-color="#EB001D"/>
<stop offset="1" stop-color="#FF5757"/>
</linearGradient>
<linearGradient id="paint6_linear_275_145" x1="110.383" y1="87.7087" x2="143.187" y2="7.16286" gradientUnits="userSpaceOnUse">
<stop stop-color="#EB001D"/>
<stop offset="1" stop-color="#FF5757"/>
</linearGradient>
<linearGradient id="paint7_linear_275_145" x1="174.433" y1="112.208" x2="203.436" y2="40.9973" gradientUnits="userSpaceOnUse">
<stop stop-color="#EB001D"/>
<stop offset="1" stop-color="#FF5757"/>
</linearGradient>
<linearGradient id="paint8_linear_275_145" x1="34.5799" y1="232.976" x2="54.5976" y2="183.827" gradientUnits="userSpaceOnUse">
<stop stop-color="#EB001D"/>
<stop offset="1" stop-color="#FF5757"/>
</linearGradient>
<linearGradient id="paint9_linear_275_145" x1="8.75589" y1="181.59" x2="33.8695" y2="119.928" gradientUnits="userSpaceOnUse">
<stop stop-color="#EB001D"/>
<stop offset="1" stop-color="#FF5757"/>
</linearGradient>
<linearGradient id="paint10_linear_275_145" x1="212.314" y1="144.944" x2="241.746" y2="72.6778" gradientUnits="userSpaceOnUse">
<stop stop-color="#EB001D"/>
<stop offset="1" stop-color="#FF5757"/>
</linearGradient>
<linearGradient id="paint11_linear_275_145" x1="209.809" y1="196.27" x2="249.275" y2="99.369" gradientUnits="userSpaceOnUse">
<stop stop-color="#EB001D"/>
<stop offset="1" stop-color="#FF5757"/>
</linearGradient>
<linearGradient id="paint12_linear_275_145" x1="150.015" y1="261.322" x2="172.28" y2="206.652" gradientUnits="userSpaceOnUse">
<stop stop-color="#EB001D"/>
<stop offset="1" stop-color="#FF5757"/>
</linearGradient>
<linearGradient id="paint13_linear_275_145" x1="178.182" y1="251.468" x2="210.021" y2="173.293" gradientUnits="userSpaceOnUse">
<stop stop-color="#EB001D"/>
<stop offset="1" stop-color="#FF5757"/>
</linearGradient>
<linearGradient id="paint14_linear_275_145" x1="62.5036" y1="255.19" x2="84.1734" y2="201.984" gradientUnits="userSpaceOnUse">
<stop stop-color="#EB001D"/>
<stop offset="1" stop-color="#FF5757"/>
</linearGradient>
<linearGradient id="paint15_linear_275_145" x1="38.54" y1="215.51" x2="69.6133" y2="139.215" gradientUnits="userSpaceOnUse">
<stop stop-color="#EB001D"/>
<stop offset="1" stop-color="#FF5757"/>
</linearGradient>
<linearGradient id="paint16_linear_275_145" x1="103.604" y1="271.616" x2="127.001" y2="214.168" gradientUnits="userSpaceOnUse">
<stop stop-color="#EB001D"/>
<stop offset="1" stop-color="#FF5757"/>
</linearGradient>
<linearGradient id="paint17_linear_275_145" x1="83.9654" y1="248.652" x2="118.505" y2="163.846" gradientUnits="userSpaceOnUse">
<stop stop-color="#EB001D"/>
<stop offset="1" stop-color="#FF5757"/>
</linearGradient>
<linearGradient id="paint18_linear_275_145" x1="140.337" y1="249.746" x2="171.157" y2="174.071" gradientUnits="userSpaceOnUse">
<stop stop-color="#EB001D"/>
<stop offset="1" stop-color="#FF5757"/>
</linearGradient>
<linearGradient id="paint19_linear_275_145" x1="40.5902" y1="154.777" x2="72.0633" y2="77.5006" gradientUnits="userSpaceOnUse">
<stop stop-color="#EB001D"/>
<stop offset="1" stop-color="#FF5757"/>
</linearGradient>
<linearGradient id="paint20_linear_275_145" x1="71.0266" y1="196.165" x2="103.458" y2="116.536" gradientUnits="userSpaceOnUse">
<stop stop-color="#EB001D"/>
<stop offset="1" stop-color="#FF5757"/>
</linearGradient>
<linearGradient id="paint21_linear_275_145" x1="179.326" y1="198.184" x2="209.29" y2="124.611" gradientUnits="userSpaceOnUse">
<stop stop-color="#EB001D"/>
<stop offset="1" stop-color="#FF5757"/>
</linearGradient>
<linearGradient id="paint22_linear_275_145" x1="129.523" y1="209.246" x2="162.034" y2="129.422" gradientUnits="userSpaceOnUse">
<stop stop-color="#EB001D"/>
<stop offset="1" stop-color="#FF5757"/>
</linearGradient>
</defs>
</svg>
